<?xml version="1.0" encoding="UTF-8" standalone="no"?>
<!-- Created with Inkscape (http://www.inkscape.org/) -->

<svg
   width="512"
   height="512"
   viewBox="0 0 135.46667 135.46667"
   version="1.1"
   id="svg5"
   sodipodi:docname="favicon4.svg"
   inkscape:version="1.2.2 (732a01da63, 2022-12-09)"
   inkscape:export-filename="favicon3.png"
   inkscape:export-xdpi="96"
   inkscape:export-ydpi="96"
   xmlns:inkscape="http://www.inkscape.org/namespaces/inkscape"
   xmlns:sodipodi="http://sodipodi.sourceforge.net/DTD/sodipodi-0.dtd"
   xmlns="http://www.w3.org/2000/svg"
   xmlns:svg="http://www.w3.org/2000/svg">
  <sodipodi:namedview
     id="namedview4841"
     pagecolor="#ffffff"
     bordercolor="#111111"
     borderopacity="1"
     inkscape:showpageshadow="0"
     inkscape:pageopacity="0"
     inkscape:pagecheckerboard="1"
     inkscape:deskcolor="#d1d1d1"
     showgrid="false"
     inkscape:zoom="1.6191406"
     inkscape:cx="181.269"
     inkscape:cy="256.30881"
     inkscape:window-width="1920"
     inkscape:window-height="1009"
     inkscape:window-x="-8"
     inkscape:window-y="-8"
     inkscape:window-maximized="1"
     inkscape:current-layer="svg5" />
  <defs
     id="defs2" />
  <g
     id="layer1"
     style="display:inline;fill:#2265c8;fill-opacity:1">
    <rect
       style="fill:#2265c8;fill-opacity:1;stroke-width:0.264583"
       id="rect9556"
       width="135.46667"
       height="135.46667"
       x="0"
       y="0"
       ry="20.534101" />
  </g>
  <g
     id="layer12"
     transform="translate(-0.52916672,0.52916668)">
    <g
       aria-label="ic"
       id="text10076"
       style="font-weight:600;font-size:142.064px;font-family:'Antipasto Pro';-inkscape-font-specification:'Antipasto Pro, Semi-Bold';fill:#ffffff;stroke-width:0.237633">
      <path
         d="m 27.417016,27.511579 q 0,1.633736 0.639288,3.054376 0.639288,1.42064 1.704768,2.48612 1.06548,1.06548 2.48612,1.704768 1.42064,0.568256 3.054376,0.568256 1.633736,0 3.054376,-0.568256 1.42064,-0.639288 2.48612,-1.704768 1.06548,-1.06548 1.704768,-2.48612 0.639288,-1.42064 0.639288,-3.054376 0,-1.633736 -0.639288,-3.054376 -0.639288,-1.491672 -1.704768,-2.557152 -1.06548,-1.06548 -2.48612,-1.633736 -1.42064,-0.639288 -3.054376,-0.639288 -1.633736,0 -3.054376,0.639288 -1.42064,0.568256 -2.48612,1.633736 -1.06548,1.06548 -1.704768,2.557152 -0.639288,1.42064 -0.639288,3.054376 z m 14.987752,22.375079 q 0,-1.491672 -0.568256,-2.770248 -0.497224,-1.278576 -1.42064,-2.201992 -0.923416,-0.994448 -2.201992,-1.562704 -1.278576,-0.568256 -2.770248,-0.568256 -1.491672,0 -2.770248,0.568256 -1.278576,0.568256 -2.273024,1.562704 -0.994448,0.923416 -1.562704,2.201992 -0.568256,1.278576 -0.568256,2.770248 v 52.847802 q 0,1.49168 0.568256,2.77025 0.568256,1.27858 1.491672,2.27303 0.994448,0.92341 2.273024,1.49167 1.349608,0.49722 2.770248,0.49722 2.983344,0 4.97224,-1.98889 2.059928,-2.05993 2.059928,-5.04328 z"
         id="path394" />
      <path
         d="m 66.981755,76.594689 -0.07103,0.142064 0.07103,0.07103 q 0,3.622632 1.349608,7.1032 1.42064,3.409536 3.90676,6.179784 2.48612,2.699216 5.824624,4.403984 3.409535,1.633736 7.387327,1.704768 3.622632,0.142064 6.961136,-0.852384 3.338504,-0.994448 6.534944,-3.693664 1.065476,-0.852384 2.273026,-1.633736 1.27857,-0.852384 2.62818,-1.136512 1.42064,-0.35516 2.98335,0 1.63373,0.35516 3.3385,1.846832 1.13651,0.994448 1.70477,2.344056 0.56825,1.349608 0.49722,2.770248 0,1.420639 -0.63929,2.912311 -0.63928,1.42064 -1.91786,2.69922 -4.33295,4.47501 -10.370672,6.81907 -6.03772,2.27302 -12.714728,2.27302 -7.103199,0 -13.354015,-2.55715 -6.179784,-2.62818 -10.867896,-7.1032 -4.61708,-4.546047 -7.316296,-10.654799 -2.699216,-6.179784 -2.699216,-13.211952 v -0.07103 l 0.07103,-0.142064 -0.07103,-0.07103 q 0,-7.1032 2.699216,-13.282983 2.699216,-6.179784 7.316296,-10.796864 4.688112,-4.61708 10.867896,-7.245264 6.250816,-2.699216 13.354015,-2.699216 6.677008,0 12.714728,2.344056 6.037722,2.273024 10.370672,6.74804 1.27858,1.278576 1.91786,2.770248 0.63929,1.42064 0.63929,2.912312 0.071,1.42064 -0.49722,2.770248 -0.56826,1.349608 -1.70477,2.344056 -1.70477,1.491672 -3.3385,1.846832 -1.56271,0.35516 -2.98335,0 -1.34961,-0.35516 -2.62818,-1.136512 -1.20755,-0.852384 -2.273026,-1.704768 -3.19644,-2.628184 -6.534944,-3.622632 -3.338504,-0.994448 -6.961136,-0.923416 -3.90676,0.142064 -7.316295,1.846832 -3.338504,1.633736 -5.824624,4.403984 -2.48612,2.699216 -3.90676,6.179783 -1.42064,3.409536 -1.42064,7.1032 z"
         id="path396" />
    </g>
  </g>
</svg>
