<?xml version="1.0" encoding="UTF-8"?>
<svg viewBox="0 0 305.04001 341.87" xmlns="http://www.w3.org/2000/svg">
 <defs>
  <filter id="d">
   <feGaussianBlur stdDeviation="2.0236"/>
  </filter>
  <filter id="c">
   <feGaussianBlur stdDeviation="3.1258"/>
  </filter>
  <linearGradient id="a" x1="189.73" x2="216.91" y1="495.89" y2="483.44" gradientUnits="userSpaceOnUse">
   <stop stop-color="#040505" offset="0"/>
   <stop stop-color="#24292a" stop-opacity="0" offset="1"/>
  </linearGradient>
  <linearGradient id="b" x1="355.23" x2="848.84" y1="345.84" y2="691.27" gradientUnits="userSpaceOnUse">
   <stop stop-color="#2e3436" offset="0"/>
   <stop stop-color="#616d71" offset="1"/>
  </linearGradient>
 </defs>
 <g transform="matrix(.45017 0 0 .45017 -18.124 -29.656)">
  <path d="m327.61 765.84 53.555-28.117" fill="none" stroke="#666" stroke-width="2"/>
  <path d="m60.297 257.56-6.4368 7.546 255.33 545.45 384.33-174.51-0.94674-5.7035-375.79 170.1-112.59-250.25z" filter="url(#c)" opacity=".4855" stroke="#000"/>
  <path d="m61.177 207.53 2.7797 9.9879 248.93 526.9 393.63-174.05c7.9208-3.9054 5.1897-11.361 2.6778-18.744l-266.39-463.25c-3.7932-3.1242-7.7497-18.233-28.117-14.728z" fill="url(#b)" stroke="#000"/>
  <path d="m61.177 207.53c-3.2079 15.146-8.3615 29.644-1.3389 48.2l5.3555 10.711 245.61 530.99c2.8586 3.2602 5.309 2.5327 9.7883 2.2761-3.0518 0.73053-2.5852 0.8816-4.3756-3.4336l-4.576-45.569c0.11088-5.1519-0.24018-2.9106 1.5401-6.6615l-250.63-526.4z" fill="#313739" stroke="#000"/>
  <path d="m318.7 800.11 374.84-166.85c8.5453-7.1048 6.2081-21.628 5.1589-23.607 0 0-4.672 17.614-11.355 20.423-19.936 8.6615-313.11 137.67-370.68 163.94z" fill="#131516" stroke="#000"/>
  <path d="m332.3 732.37-19.981 7.9795 0.56753 4.0704 393.63-174.05c7.9208-3.9054 5.1897-11.361 2.6778-18.744-0.79778 5.3555 2.1976 10.711-3.3472 16.067-18.521 6.9174-45.238 19.925-68.283 28.786z" fill="#24292a"/>
  <path d="m339.87 726.69-16.194 8.9263-3.2194 3.1237 384.16-170.27c6.3259-4.0584 2.1659-2.7132 4.6861-4.6861-18.521 6.9174-50.594 21.934-73.639 30.794z" fill="#b8c0c3"/>
  <path d="m334.03 756.49c-0.77434 3.7747-1.3187 7.5035 0 10.86l27.511-14.479c1.5324-6.6061 0.74733-7.4188 0.72397-10.136z" fill="#1a1a1a"/>
  <path d="m696.88 626.79 7.0514-57.34" fill="none" stroke="#000" stroke-width="2"/>
  <path d="m151.3 386.82 378.84-151.55 97.536 175.31-385.49 165.59c-2.8326 12.152-32.314-12.404-13.254 43.55l-77.632-172.31z" fill="#fc0"/>
  <path d="m151.3 386.82c15.565 45.161 47.592 107.55 90.886 189.35-7.4294 0.65702-22.142 19.17-14.201 41.656l-87.099-191.24c-7.7451-10.555 5.2064-33.453 10.414-39.763z" fill="#a80"/>
  <path d="m383.87 88.248 285.7 497.33c2.5092 21.799 1.4296 50.935-7.8036 59.807-2.7179 11.185-19.603 22.191-26.235 15.983 12.041-25.584 12.542-44.04 12.101-63.415l-285.7-501.11c-5.8027-3.9278 18.072-18.345 21.937-8.5879z" fill="#171a1b"/>
  <path d="m67.444 203.09-11.361 12.308 252.78 536.8 4.7337-8.5206 6.6271-3.7869z" fill="url(#a)" filter="url(#d)" opacity=".6971"/>
  <path d="m227.2 617.23c-4.1677-26.097 7.7391-35.044 14.728-40.166l380.24-159.33" fill="none" stroke="#000" stroke-width="2"/>
 </g>
</svg>
