<svg width="26" height="26" viewBox="0 0 26 26" fill="none" xmlns="http://www.w3.org/2000/svg">
<path d="M8.7943 0H17.2006C20.1784 0 21.0143 0 22.296 0.431641C23.0461 0.706279 23.7272 1.14115 24.292 1.70595C24.8568 2.27075 25.2917 2.9519 25.5663 3.70195C26 4.98266 26 5.81953 26 8.79734V17.2027C26 20.1815 26 21.0163 25.5694 22.2991C25.2944 23.0489 24.8595 23.7299 24.2947 24.2947C23.7299 24.8595 23.0489 25.2944 22.2991 25.5694C21.0173 26 20.1815 26 17.2037 26H8.7943C5.81649 26 4.98062 26 3.6989 25.5694C2.94903 25.2944 2.26803 24.8595 1.70327 24.2947C1.13851 23.7299 0.703531 23.0489 0.428591 22.2991C-2.95043e-06 21.0163 0 20.1815 0 17.2027V8.79734C0 5.81953 0 4.98367 0.431641 3.70195C0.706279 2.9519 1.14115 2.27075 1.70595 1.70595C2.27075 1.14115 2.9519 0.706279 3.70195 0.431641C4.97656 0 5.81649 0 8.7943 0Z" fill="black"/>
<path d="M21.6836 10.5879V8.45508C21.6836 6.26751 19.9102 4.49414 17.7227 4.49414C15.5351 4.49414 13.7617 6.26751 13.7617 8.45508V10.5879C13.7617 11.261 14.3074 11.8066 14.9805 11.8066H20.4648C21.1379 11.8066 21.6836 11.261 21.6836 10.5879Z" fill="#11F1FF"/>
<path d="M11.6289 8.15039C11.6289 10.1697 9.99195 11.8066 7.97266 11.8066C5.95337 11.8066 4.31641 10.1697 4.31641 8.15039C4.31641 6.1311 5.95337 4.49414 7.97266 4.49414C9.99195 4.49414 11.6289 6.1311 11.6289 8.15039Z" fill="#FF694D"/>
<path d="M5.12891 14.8027C5.12891 14.1296 5.67456 13.584 6.34766 13.584H9.59766C10.2708 13.584 10.8164 14.1296 10.8164 14.8027V20.2871C10.8164 20.9602 10.2708 21.5059 9.59766 21.5059H6.34766C5.67456 21.5059 5.12891 20.9602 5.12891 20.2871V14.8027Z" fill="#FC6BFF"/>
<path d="M18.8885 13.9373C19.5628 13.2631 20.656 13.2631 21.3302 13.9373C22.0045 14.6116 22.0045 15.7048 21.3302 16.3791L20.1644 17.5449L21.3302 18.7108C22.0045 19.385 22.0045 20.4782 21.3302 21.1525C20.656 21.8268 19.5628 21.8268 18.8885 21.1525L17.7227 19.9867L16.5568 21.1525C15.8825 21.8268 14.7893 21.8268 14.1151 21.1525C13.4408 20.4782 13.4408 19.385 14.1151 18.7108L15.2809 17.5449L14.1151 16.3791C13.4408 15.7048 13.4408 14.6116 14.1151 13.9373C14.7893 13.2631 15.8825 13.2631 16.5568 13.9373L17.7227 15.1032L18.8885 13.9373Z" fill="#ACFF43"/>
</svg>
