<svg width="48" height="48" viewBox="0 0 48 48" fill="none" xmlns="http://www.w3.org/2000/svg">
<path fill-rule="evenodd" clip-rule="evenodd" d="M15.4014 2.25C19.1954 2.25 22.3279 5.11005 22.8 8.8116L22.8 9.5H15.84C15.673 9.5 15.5112 9.55845 15.3823 9.66535L12.4744 12.0768C12.2576 11.9741 12.0155 11.9167 11.76 11.9167C10.8322 11.9167 10.08 12.6741 10.08 13.6083C10.08 14.5426 10.8322 15.3 11.76 15.3C12.6878 15.3 13.44 14.5426 13.44 13.6083C13.44 13.4662 13.4226 13.3281 13.3898 13.1961L16.098 10.95H22.8L22.8 23.275L9.19836 23.2751C8.92874 22.7035 8.3502 22.3083 7.68 22.3083C6.75216 22.3083 6 23.0657 6 24C6 24.9343 6.75216 25.6917 7.68 25.6917C8.35011 25.6917 8.92858 25.2966 9.19825 24.7252L22.8 24.725L22.8 37.05H16.098L13.3898 34.8039C13.4226 34.6719 13.44 34.5339 13.44 34.3917C13.44 33.4574 12.6878 32.7 11.76 32.7C10.8322 32.7 10.08 33.4574 10.08 34.3917C10.08 35.3259 10.8322 36.0833 11.76 36.0833C12.0155 36.0833 12.2576 36.0259 12.4744 35.9232L15.3823 38.3346C15.5112 38.4415 15.673 38.5 15.84 38.5H22.8L22.8 39.1887C22.2745 42.8983 19.0999 45.75 15.2811 45.75C11.7611 45.75 8.80152 43.3272 7.94817 40.043C5.39478 38.9196 3.60971 36.3484 3.60971 33.3562C3.60971 32.6507 3.70894 31.9686 3.89419 31.3234C1.61124 30.1249 0.0422741 27.7309 0.000840867 24.963L0 24.725C0 21.6976 1.84273 19.1036 4.46037 18.0183C3.97866 17.1284 3.68161 16.1218 3.62118 15.0513L3.61455 14.907C3.6049 14.7573 3.6 14.6063 3.6 14.4542C3.6 11.4546 5.50421 8.90296 8.16177 7.95795C8.96989 4.67947 11.9047 2.25 15.4014 2.25ZM39.8582 8.04178C39.0799 4.72089 36.125 2.25 32.5986 2.25C28.8046 2.25 25.6721 5.11005 25.2 8.8116V39.1887C25.7255 42.8983 28.9001 45.75 32.7189 45.75C36.2389 45.75 39.1985 43.3272 40.0518 40.043C42.6052 38.9196 44.3903 36.3484 44.3903 33.3562C44.3903 32.6507 44.2911 31.9686 44.1058 31.3234C46.4196 30.1087 48 27.666 48 24.8506C48 22.3172 46.7204 20.0856 44.7784 18.7795C44.7693 18.9202 44.7198 19.0599 44.6275 19.1796C43.1817 21.0546 41.5477 22.2345 39.7489 22.7173C39.7158 22.805 39.6834 22.9004 39.6526 23.003C39.4993 23.5135 39.4196 24.0823 39.449 24.6925C39.4735 25.2012 39.5739 25.7176 39.7615 26.2388C39.8978 26.6172 39.7045 27.0355 39.3298 27.1731C38.9551 27.3107 38.5408 27.1155 38.4046 26.7371C38.1666 26.0762 38.0383 25.4157 38.0068 24.7633C37.9761 24.1248 38.0381 23.521 38.1693 22.962C36.3523 23.0447 34.3892 22.4843 32.3006 21.2796C31.9544 21.0798 31.8341 20.6345 32.0318 20.2849C32.2296 19.9353 32.6706 19.8137 33.0168 20.0134L33.1448 20.0864C37.3596 22.4637 40.7309 21.6836 43.4979 18.0945C44.0662 17.0746 44.3903 15.8975 44.3903 14.6439C44.3903 11.621 42.5056 9.04258 39.8582 8.04178ZM28.7898 32.6066C28.6417 32.2327 28.8219 31.8085 29.1921 31.659C29.5491 31.5149 29.9525 31.6789 30.1136 32.026L30.1304 32.0651L30.1614 32.1304C30.2248 32.2572 30.3189 32.4096 30.4453 32.5698C30.6533 32.8332 30.9076 33.0625 31.2114 33.2378C31.9543 33.6665 32.9235 33.7429 34.2006 33.3135C35.248 32.629 36.5511 32.3028 38.0959 32.3479C38.4944 32.3595 38.8082 32.6952 38.7967 33.0977C38.7851 33.5002 38.4527 33.817 38.0542 33.8054C35.2129 33.7224 33.5378 35.0857 32.8589 38.058C32.7693 38.4504 32.3817 38.6951 31.9932 38.6046C31.6047 38.5141 31.3624 38.1227 31.452 37.7303C31.6893 36.6912 32.0442 35.798 32.5127 35.0547C31.7611 35.0362 31.0875 34.8456 30.4951 34.5038C29.664 34.0242 29.1319 33.3501 28.8315 32.7025L28.8247 32.6876L28.7898 32.6066ZM32.0801 9.05419C31.6815 9.06364 31.3659 9.39762 31.3753 9.80015C31.4057 11.1074 31.6849 12.2299 32.2046 13.1593C30.9739 13.2472 29.772 13.9023 28.6785 15.2188C28.4222 15.5273 28.4621 15.9871 28.7676 16.2459C29.0731 16.5047 29.5284 16.4644 29.7847 16.1559C30.6769 15.0818 31.563 14.6271 32.4344 14.6078C32.7842 14.6 33.1192 14.6643 33.4318 14.7819C33.6218 14.8534 33.7802 14.9351 33.8992 15.0109L33.9591 15.0507L33.9962 15.0773C34.0125 15.0883 34.0291 15.0985 34.046 15.1077C34.8642 15.6366 35.866 16.0088 37.0456 16.2186C37.4383 16.2884 37.8127 16.0236 37.8819 15.627C37.951 15.2305 37.6888 14.8524 37.2961 14.7826C36.2961 14.6047 35.47 14.3039 34.8116 13.8739L34.7474 13.8288L34.6737 13.7802C33.4649 12.9264 32.8614 11.6025 32.8188 9.76594C32.8094 9.36341 32.4787 9.04475 32.0801 9.05419Z" fill="url(#paint0_linear_6011_1043)"/>
<defs>
<linearGradient id="paint0_linear_6011_1043" x1="23.9453" y1="-13.4605" x2="-13.6708" y2="28.0581" gradientUnits="userSpaceOnUse">
<stop stop-color="#32C5FF"/>
<stop offset="0.540947" stop-color="#B620E0"/>
<stop offset="1" stop-color="#F7B500"/>
</linearGradient>
</defs>
</svg>
